# xmcd
#
# Track frame offsets: 
#        150
#        15274
#        26502
#        42347
#        59303
#        73708
#        87862
#        97913
#        117094
#        129224
#        145848
#        164355
#
# Disc length: 2369 seconds
#
# Revision: 0
# Processed by: cddbd v1.5.2PL0 Copyright (c) Steve Scherf et al.
# Submitted via: ExactAudioCopy v1.0b4
#
DISCID=8f093f0c
DTITLE=John Mayall -  The Blues Alone  (LP)
DYEAR=1967
DGENRE=Blues
TTITLE0=Brand New Start
TTITLE1=Please Don't Tell
TTITLE2=Down The Line
TTITLE3=Sonny Boy Blow
TTITLE4=Marsha's Mood
TTITLE5=No More Tears
TTITLE6=Catch That Train
TTITLE7=Cancelling Out
TTITLE8=Harp Man
TTITLE9=Brown Sugar
TTITLE10=Broken Wings
TTITLE11=Don't Kick Me
EXTD=
EXTT0=
EXTT1=
EXTT2=
EXTT3=
EXTT4=
EXTT5=
EXTT6=
EXTT7=
EXTT8=
EXTT9=
EXTT10=
EXTT11=
PLAYORDER=
